<?xml version="1.0" standalone="no"?>
<!DOCTYPE svg PUBLIC "-//W3C//DTD SVG 20010904//EN"
 "http://www.w3.org/TR/2001/REC-SVG-20010904/DTD/svg10.dtd">
<svg version="1.0" xmlns="http://www.w3.org/2000/svg"
 width="900.000000pt" height="900.000000pt" viewBox="0 0 900.000000 900.000000"
 preserveAspectRatio="xMidYMid meet">
<metadata>
Created by potrace 1.14, written by Peter Selinger 2001-2017
</metadata>
<g transform="translate(0.000000,900.000000) scale(0.100000,-0.100000)"
fill="#000000" stroke="none">
<path d="M4238 8989 c-711 -39 -1438 -263 -2053 -634 -1532 -922 -2372 -2658
-2145 -4428 269 -2094 1966 -3725 4065 -3906 1195 -103 2371 268 3290 1038
127 106 390 366 502 496 655 756 1041 1711 1091 2695 43 849 -136 1654 -533
2389 -301 558 -736 1063 -1252 1454 -669 506 -1481 817 -2318 886 -172 15
-476 19 -647 10z m680 -747 c28 -37 -2 -102 -48 -102 -27 0 -60 35 -60 63 0
59 72 85 108 39z m-1064 -284 c20 -28 20 -51 1 -88 -13 -25 -21 -30 -54 -30
-43 0 -58 13 -67 58 -10 49 17 82 66 82 29 0 43 -6 54 -22z m-1248 -6 c34 -23
12 -82 -31 -82 -26 0 -55 24 -55 45 0 33 56 58 86 37z m3872 -364 c-2 -15 -11
-24 -25 -26 -19 -3 -23 1 -23 22 0 21 5 26 26 26 21 0 25 -4 22 -22z m-2273
-27 c9 -30 -5 -51 -35 -51 -30 0 -44 21 -35 51 4 13 16 19 35 19 19 0 31 -6
35 -19z m3185 -201 c22 -40 -26 -80 -58 -48 -25 25 -6 68 30 68 9 0 22 -9 28
-20z m-1915 -370 c0 -32 -3 -35 -33 -38 -37 -4 -62 12 -62 37 0 28 23 42 60
39 33 -3 35 -5 35 -38z m-3899 -87 c9 -35 -7 -58 -42 -58 -22 0 -31 6 -38 27
-12 35 6 58 45 58 23 0 30 -6 35 -27z m3249 -548 c183 -24 266 -45 275 -69 16
-44 71 -842 58 -850 -2 -1 -27 -20 -57 -41 l-54 -39 6 39 c10 63 -10 173 -47
250 -57 121 -157 211 -284 257 -84 31 -245 30 -325 -1 -90 -35 -177 -99 -229
-168 -66 -88 -90 -157 -96 -275 l-4 -97 -49 37 -49 36 0 141 c0 212 40 709 58
727 10 9 200 47 292 57 123 14 386 12 505 -4z m-3697 -312 c2 -15 -4 -22 -23
-27 -45 -11 -76 32 -38 52 23 14 57 -1 61 -25z m6318 -59 c20 -19 24 -31 20
-52 -21 -85 -126 -78 -126 8 0 29 6 43 22 54 32 23 55 20 84 -10z m-5854 -91
c20 -18 24 -73 6 -91 -37 -37 -108 9 -93 60 16 50 52 63 87 31z m2996 -20 c-2
-10 -10 -18 -18 -18 -8 0 -16 8 -18 18 -2 12 3 17 18 17 15 0 20 -5 18 -17z
m-1910 -5 c27 -27 1 -78 -39 -78 -20 0 -59 33 -59 49 0 33 72 55 98 29z m1800
-5 c-2 -10 -10 -18 -18 -18 -8 0 -16 8 -18 18 -2 12 3 17 18 17 15 0 20 -5 18
-17z m217 -4 c0 -7 -8 -15 -17 -17 -18 -3 -25 18 -11 32 10 10 28 1 28 -15z
m-319 -30 c7 -12 -15 -31 -28 -23 -4 3 -8 12 -8 20 0 17 26 19 36 3z m285 -3
c200 -46 336 -255 300 -457 -23 -134 -107 -244 -228 -302 -63 -30 -76 -32
-173 -32 -97 0 -110 2 -170 31 -81 39 -150 108 -193 194 -30 61 -32 71 -32
175 0 98 3 116 27 167 35 75 104 148 177 187 96 51 186 63 292 37z m139 -9 c0
-19 -10 -27 -26 -20 -21 8 -17 33 6 33 11 0 20 -6 20 -13z m2423 -38 c15 -22
17 -30 8 -48 -21 -39 -101 -19 -101 25 0 57 57 70 93 23z m-2938 -19 c0 -8 -8
-16 -17 -18 -13 -2 -18 3 -18 18 0 15 5 20 18 18 9 -2 17 -10 17 -18z m603
-13 c2 -12 -3 -17 -17 -17 -12 0 -21 6 -21 13 0 31 32 34 38 4z m-675 -62 c7
-17 -8 -29 -28 -21 -17 6 -9 36 10 36 7 0 15 -7 18 -15z m742 -25 c0 -22 -29
-18 -33 3 -3 14 1 18 15 15 10 -2 18 -10 18 -18z m-792 -75 c7 -18 -9 -29 -30
-21 -12 5 -13 9 -3 21 16 19 26 19 33 0z m2010 -28 c18 -36 13 -55 -18 -63
-30 -8 -75 22 -75 50 1 61 66 70 93 13z m-1173 3 c0 -21 -24 -28 -35 -10 -8
14 3 30 21 30 8 0 14 -9 14 -20z m-1372 -62 c17 -17 15 -83 -2 -97 -8 -7 -27
-11 -43 -9 -25 3 -28 7 -31 46 -2 24 2 50 9 58 14 17 51 18 67 2z m512 -22 c0
-8 -5 -18 -11 -22 -14 -8 -33 11 -25 25 10 16 36 13 36 -3z m878 -23 c-2 -10
-10 -18 -18 -18 -8 0 -16 8 -18 18 -2 12 3 17 18 17 15 0 20 -5 18 -17z m3262
1 c10 -11 11 -23 4 -42 -17 -48 -84 -38 -84 12 0 43 53 63 80 30z m-4135 -94
c0 -8 -8 -16 -17 -18 -13 -2 -18 3 -18 18 0 15 5 20 18 18 9 -2 17 -10 17 -18z
m865 -14 c0 -8 -5 -18 -11 -22 -14 -8 -33 11 -25 25 10 16 36 13 36 -3z m-830
-92 c0 -8 -9 -14 -20 -14 -19 0 -27 19 -14 33 10 9 34 -4 34 -19z m793 -9 c7
-17 -8 -29 -28 -21 -17 6 -9 36 10 36 7 0 15 -7 18 -15z m-738 -85 c0 -8 -8
-16 -17 -18 -13 -2 -18 3 -18 18 0 15 5 20 18 18 9 -2 17 -10 17 -18z m675
-16 c0 -14 -21 -19 -33 -7 -9 9 13 34 24 27 5 -3 9 -12 9 -20z m-597 -51 c4
-3 2 -12 -4 -20 -9 -10 -15 -10 -25 -2 -8 6 -11 15 -8 20 6 11 28 12 37 2z
m517 -17 c0 -20 -19 -31 -32 -18 -6 6 -7 15 -4 21 10 16 36 13 36 -3z m-422
-49 c2 -12 -3 -17 -17 -17 -12 0 -21 6 -21 13 0 31 32 34 38 4z m325 7 c9 -9
-4 -34 -18 -34 -14 0 -27 25 -18 34 4 3 12 6 18 6 6 0 14 -3 18 -6z m-218 -34
c0 -8 -8 -16 -17 -18 -13 -2 -18 3 -18 18 0 15 5 20 18 18 9 -2 17 -10 17 -18z
m110 -1 c0 -7 -8 -15 -17 -17 -18 -3 -25 18 -11 32 10 10 28 1 28 -15z m-65
-53 c95 0 124 4 169 22 30 12 56 21 56 19 1 -1 16 -78 34 -172 18 -93 48 -244
67 -335 45 -207 55 -344 43 -547 -15 -256 -80 -613 -143 -792 -9 -24 -16 -47
-16 -52 0 -5 86 -9 190 -9 l190 0 0 -32 c-1 -72 -62 -158 -144 -200 -33 -18
-59 -22 -137 -22 l-97 -1 52 -25 c71 -35 108 -91 114 -170 l4 -60 -371 0
c-204 0 -374 1 -378 3 -5 1 -7 26 -7 55 2 74 43 138 110 172 l50 25 -85 0
c-103 1 -150 15 -204 64 -44 39 -87 120 -87 164 l0 27 194 0 195 0 -19 55
c-47 136 -95 349 -126 555 -19 131 -30 502 -16 590 9 61 129 671 137 697 3 8
20 5 57 -10 43 -17 74 -21 168 -21z m-3280 -246 c11 -11 20 -27 20 -35 0 -25
-38 -55 -69 -55 -30 0 -61 30 -61 57 0 22 39 53 65 53 14 0 34 -9 45 -20z
m5955 -274 c11 -17 13 -30 6 -48 -18 -47 -74 -47 -92 -1 -13 34 12 73 46 73
15 0 31 -9 40 -24z m-6637 -698 c35 -35 -15 -99 -53 -68 -15 13 -21 61 -8 73
11 11 48 8 61 -5z m7929 -99 c43 -6 82 -14 87 -19 11 -11 -21 -153 -75 -331
-301 -998 -971 -1858 -1870 -2400 -511 -307 -1077 -498 -1709 -576 -221 -27
-724 -24 -956 5 -834 105 -1568 421 -2214 955 -136 113 -467 451 -579 591
-181 229 -327 454 -462 711 -108 208 -257 573 -243 596 9 16 76 46 154 70 61
19 97 24 190 23 102 0 125 -4 201 -30 92 -33 202 -100 258 -158 l34 -35 38 20
c58 29 146 49 219 49 242 0 449 -167 506 -406 38 -162 -15 -352 -130 -463 -36
-35 -38 -51 -8 -51 10 0 49 -15 88 -34 185 -89 304 -286 292 -488 -3 -59 -1
-68 12 -62 180 81 367 72 516 -24 32 -21 80 -62 106 -91 54 -60 70 -61 108 -5
30 45 118 118 180 149 83 42 165 58 275 52 117 -5 184 -27 279 -91 l64 -43 35
48 c20 27 44 68 55 91 42 94 139 196 231 243 60 30 146 55 189 55 29 0 33 3
27 18 -17 42 -45 203 -45 261 0 81 29 136 90 170 116 65 267 -13 275 -142 3
-50 -23 -211 -49 -296 -15 -52 -14 -71 4 -71 5 0 26 33 47 73 25 49 63 98 118
153 68 68 97 90 176 127 133 65 297 93 407 71 29 -6 31 -10 41 -73 6 -36 12
-84 13 -106 3 -38 4 -36 37 54 l35 94 77 -7 c271 -22 508 -162 658 -386 58
-87 113 -209 126 -283 l7 -38 28 48 c80 139 242 243 403 260 54 6 58 8 52 27
-32 98 -44 161 -44 241 -2 172 55 311 176 434 l74 75 -17 61 c-25 85 -22 212
6 295 30 88 65 145 130 210 151 150 377 191 572 103 59 -26 60 -26 71 -7 22
40 148 160 201 193 94 56 220 95 328 100 15 0 62 -4 105 -10z m-6883 -131 c17
-28 -4 -72 -37 -76 -16 -2 -35 2 -43 9 -17 14 -18 61 -2 77 17 17 69 11 82
-10z m4724 -300 c20 -20 15 -86 -7 -98 -43 -22 -81 1 -81 50 0 49 56 80 88 48z"/>
<path d="M4535 2431 c-3 -5 -2 -12 3 -15 5 -3 9 1 9 9 0 17 -3 19 -12 6z"/>
<path d="M4590 2426 c0 -2 8 -10 18 -17 15 -13 16 -12 3 4 -13 16 -21 21 -21
13z"/>
<path d="M4513 2415 c4 -5 0 -16 -9 -26 -12 -14 -13 -18 -2 -25 7 -4 10 -3 5
1 -4 5 0 16 9 26 12 14 13 18 2 25 -7 4 -10 3 -5 -1z"/>
<path d="M4543 2365 c0 -8 4 -12 9 -9 5 3 6 10 3 15 -9 13 -12 11 -12 -6z"/>
<path d="M4615 2285 c0 -60 4 -88 15 -97 12 -11 12 -11 4 2 -6 8 -10 50 -9 93
0 43 -2 80 -5 82 -3 2 -5 -34 -5 -80z"/>
<path d="M4483 2345 c0 -8 4 -12 9 -9 5 3 6 10 3 15 -9 13 -12 11 -12 -6z"/>
<path d="M4529 2338 c-4 -9 -4 -156 1 -152 5 5 8 154 3 154 -2 0 -4 -1 -4 -2z"/>
<path d="M4523 2155 c0 -8 4 -12 9 -9 5 3 6 10 3 15 -9 13 -12 11 -12 -6z"/>
<path d="M4609 2117 c6 -8 7 -18 3 -22 -4 -5 -1 -5 6 -1 10 6 10 11 1 22 -6 8
-14 14 -16 14 -3 0 0 -6 6 -13z"/>
<path d="M4531 2106 c-9 -10 -7 -17 6 -27 16 -12 17 -12 6 2 -10 12 -10 18 -1
27 7 7 9 12 6 12 -3 0 -11 -6 -17 -14z"/>
<path d="M4565 2081 c-3 -5 -2 -12 3 -15 5 -3 9 1 9 9 0 17 -3 19 -12 6z"/>
<path d="M4519 2068 c-5 -18 -6 -38 -1 -34 7 8 12 36 6 36 -2 0 -4 -1 -5 -2z"/>
<path d="M4594 2046 c1 -14 4 -28 7 -31 3 -3 5 6 5 19 -1 14 -4 28 -7 31 -3 3
-5 -6 -5 -19z"/>
<path d="M4519 2013 c-13 -16 -12 -17 4 -4 9 7 17 15 17 17 0 8 -8 3 -21 -13z"/>
<path d="M4529 1993 c-13 -16 -12 -17 4 -4 16 13 21 21 13 21 -2 0 -10 -8 -17
-17z"/>
<path d="M4584 1996 c1 -8 5 -18 8 -22 4 -3 5 1 4 10 -1 8 -5 18 -8 22 -4 3
-5 -1 -4 -10z"/>
</g>
</svg>
